<?xml version="1.0" encoding="UTF-8" standalone="no"?>
<!-- Generated by graphviz version 2.36.0 (20140111.2315)
 -->

<!-- Title: impliedTwoDegreesRelationshipsDiagram Pages: 1 -->

<svg
   xmlns:dc="http://purl.org/dc/elements/1.1/"
   xmlns:cc="http://creativecommons.org/ns#"
   xmlns:rdf="http://www.w3.org/1999/02/22-rdf-syntax-ns#"
   xmlns:svg="http://www.w3.org/2000/svg"
   xmlns="http://www.w3.org/2000/svg"
   xmlns:xlink="http://www.w3.org/1999/xlink"
   xmlns:sodipodi="http://sodipodi.sourceforge.net/DTD/sodipodi-0.dtd"
   xmlns:inkscape="http://www.inkscape.org/namespaces/inkscape"
   width="490.625"
   height="737.5"
   viewBox="0 0 392.5 590"
   id="svg2"
   version="1.1"
   inkscape:version="0.48.4 r9939"
   sodipodi:docname="products_implied2degrees.svg">
  <metadata
     id="metadata480">
    <rdf:RDF>
      <cc:Work
         rdf:about="">
        <dc:format>image/svg+xml</dc:format>
        <dc:type
           rdf:resource="http://purl.org/dc/dcmitype/StillImage" />
      </cc:Work>
    </rdf:RDF>
  </metadata>
  <defs
     id="defs478" />
  <sodipodi:namedview
     pagecolor="#ffffff"
     bordercolor="#666666"
     borderopacity="1"
     objecttolerance="10"
     gridtolerance="10"
     guidetolerance="10"
     inkscape:pageopacity="0"
     inkscape:pageshadow="2"
     inkscape:window-width="1197"
     inkscape:window-height="891"
     id="namedview476"
     showgrid="false"
     fit-margin-top="0"
     fit-margin-left="0"
     fit-margin-right="0"
     fit-margin-bottom="0"
     inkscape:zoom="0.91051805"
     inkscape:cx="245"
     inkscape:cy="348.75"
     inkscape:window-x="35"
     inkscape:window-y="24"
     inkscape:window-maximized="0"
     inkscape:current-layer="svg2" />
  <g
     class="node"
     id="node1"
     transform="translate(-8,625.5)">
    <title
       id="title12">cart</title>
    <g
       id="a_node1">
      <a
         xlink:href="cart.html"
         xlink:title="cart"
         id="a15">
        <polygon
           style="fill:#ffffff;stroke:none"
           id="polygon17"
           points="189,-498.5 189,-625.5 269,-625.5 269,-498.5 189,-498.5 " />
        <polygon
           style="fill:#9bab96;stroke:none"
           id="polygon19"
           points="189,-606 189,-625 269,-625 269,-606 189,-606 " />
        <polygon
           style="fill:none;stroke:#000000"
           id="polygon21"
           points="189,-606 189,-625 269,-625 269,-606 189,-606 " />
        <text
           style="font-size:11px;text-anchor:start;font-family:'Helvetica,sans-Serif'"
           id="text23"
           font-size="11.00"
           y="-612.70001"
           x="219.5">cart</text>
        <polygon
           style="fill:#bed1b8;stroke:none"
           id="polygon25"
           points="189,-588 189,-606 269,-606 269,-588 189,-588 " />
        <polygon
           style="fill:none;stroke:#000000"
           id="polygon27"
           points="189,-588 189,-606 269,-606 269,-588 189,-588 " />
        <text
           style="font-size:11px;text-anchor:start;font-family:'Helvetica,sans-Serif'"
           id="text29"
           font-size="11.00"
           y="-594.20001"
           x="192">product_id</text>
        <polygon
           style="fill:none;stroke:#000000"
           id="polygon31"
           points="189,-570 189,-588 269,-588 269,-570 189,-570 " />
        <text
           style="font-size:11px;text-anchor:start;font-family:'Helvetica,sans-Serif'"
           id="text33"
           font-size="11.00"
           y="-576.20001"
           x="192">quantity</text>
        <polygon
           style="fill:none;stroke:#000000"
           id="polygon35"
           points="189,-552 189,-570 269,-570 269,-552 189,-552 " />
        <text
           style="font-size:11px;text-anchor:start;font-family:'Helvetica,sans-Serif'"
           id="text37"
           font-size="11.00"
           y="-558.20001"
           x="192">date_creation</text>
        <polygon
           style="fill:none;stroke:#000000"
           id="polygon39"
           points="189,-534 189,-552 269,-552 269,-534 189,-534 " />
        <text
           style="font-size:11px;text-anchor:start;font-family:'Helvetica,sans-Serif'"
           id="text41"
           font-size="11.00"
           y="-540.20001"
           x="192">date_update</text>
        <polygon
           style="fill:#bed1b8;stroke:none"
           id="polygon43"
           points="189,-516 189,-534 269,-534 269,-516 189,-516 " />
        <polygon
           style="fill:none;stroke:#000000"
           id="polygon45"
           points="189,-516 189,-534 269,-534 269,-516 189,-516 " />
        <text
           style="font-size:11px;text-anchor:start;font-family:'Helvetica,sans-Serif'"
           id="text47"
           font-size="11.00"
           y="-522.20001"
           x="192">owner_session</text>
        <polygon
           style="fill:#f7f7f7;stroke:none"
           id="polygon49"
           points="189,-498 189,-516 214,-516 214,-498 189,-498 " />
        <polygon
           style="fill:none;stroke:#000000"
           id="polygon51"
           points="189,-498 189,-516 214,-516 214,-498 189,-498 " />
        <text
           style="font-size:11px;text-anchor:start;font-family:'Helvetica,sans-Serif'"
           id="text53"
           font-size="11.00"
           y="-504.20001"
           x="192">&lt; 1</text>
        <polygon
           style="fill:#f7f7f7;stroke:none"
           id="polygon55"
           points="214,-498 214,-516 254,-516 254,-498 214,-498 " />
        <polygon
           style="fill:none;stroke:#000000"
           id="polygon57"
           points="214,-498 214,-516 254,-516 254,-498 214,-498 " />
        <text
           style="font-size:11px;text-anchor:start;font-family:'Helvetica,sans-Serif'"
           id="text59"
           font-size="11.00"
           y="-504.20001"
           x="218">5 rows</text>
        <polygon
           style="fill:#f7f7f7;stroke:none"
           id="polygon61"
           points="254,-498 254,-516 269,-516 269,-498 254,-498 " />
        <polygon
           style="fill:none;stroke:#000000"
           id="polygon63"
           points="254,-498 254,-516 269,-516 269,-498 254,-498 " />
        <text
           style="font-size:11px;text-anchor:start;font-family:'Helvetica,sans-Serif'"
           id="text65"
           font-size="11.00"
           y="-504.20001"
           x="259"> </text>
      </a>
    </g>
  </g>
  <g
     class="node"
     id="node2"
     transform="translate(-8,625.5)">
    <title
       id="title68">products</title>
    <g
       id="a_node2">
      <a
         xlink:href="products.html"
         xlink:title="products"
         id="a71">
        <polygon
           style="fill:#ffffff;stroke:none"
           id="polygon73"
           points="8,-292.5 8,-405.5 138,-405.5 138,-292.5 8,-292.5 " />
        <polygon
           style="fill:#9bab96;stroke:none"
           id="polygon75"
           points="10,-384 10,-403 136,-403 136,-384 10,-384 " />
        <polygon
           style="fill:none;stroke:#000000"
           id="polygon77"
           points="10,-384 10,-403 136,-403 136,-384 10,-384 " />
        <text
           style="font-size:11px;text-anchor:start;font-family:'Helvetica,sans-Serif'"
           id="text79"
           font-size="11.00"
           y="-390.70001"
           x="52">products</text>
        <polygon
           style="fill:#bed1b8;stroke:none"
           id="polygon81"
           points="10,-366 10,-384 72,-384 72,-366 10,-366 " />
        <polygon
           style="fill:none;stroke:#000000"
           id="polygon83"
           points="10,-366 10,-384 72,-384 72,-366 10,-366 " />
        <text
           style="font-size:11px;text-anchor:start;font-family:'Helvetica,sans-Serif'"
           id="text85"
           font-size="11.00"
           y="-372.20001"
           x="13">product_id</text>
        <polygon
           style="fill:none;stroke:#000000"
           id="polygon87"
           points="72,-366 72,-384 136,-384 136,-366 72,-366 " />
        <text
           style="font-size:11px;text-anchor:start;font-family:'Helvetica,sans-Serif'"
           id="text89"
           font-size="11.00"
           y="-372.20001"
           x="75">bigserial[19]</text>
        <polygon
           style="fill:none;stroke:#000000"
           id="polygon91"
           points="10,-348 10,-366 72,-366 72,-348 10,-348 " />
        <text
           style="font-size:11px;text-anchor:start;font-family:'Helvetica,sans-Serif'"
           id="text93"
           font-size="11.00"
           y="-354.20001"
           x="13">description</text>
        <polygon
           style="fill:none;stroke:#000000"
           id="polygon95"
           points="72,-348 72,-366 136,-366 136,-348 72,-348 " />
        <text
           style="font-size:11px;text-anchor:start;font-family:'Helvetica,sans-Serif'"
           id="text97"
           font-size="11.00"
           y="-354.20001"
           x="75">varchar[64]</text>
        <polygon
           style="fill:none;stroke:#000000"
           id="polygon99"
           points="10,-330 10,-348 72,-348 72,-330 10,-330 " />
        <text
           style="font-size:11px;text-anchor:start;font-family:'Helvetica,sans-Serif'"
           id="text101"
           font-size="11.00"
           y="-336.20001"
           x="13">price</text>
        <polygon
           style="fill:none;stroke:#000000"
           id="polygon103"
           points="72,-330 72,-348 136,-348 136,-330 72,-330 " />
        <text
           style="font-size:11px;text-anchor:start;font-family:'Helvetica,sans-Serif'"
           id="text105"
           font-size="11.00"
           y="-336.20001"
           x="75">int8[19]</text>
        <polygon
           style="fill:none;stroke:#000000"
           id="polygon107"
           points="10,-312 10,-330 72,-330 72,-312 10,-312 " />
        <text
           style="font-size:11px;text-anchor:start;font-family:'Helvetica,sans-Serif'"
           id="text109"
           font-size="11.00"
           y="-318.20001"
           x="13">vat_level</text>
        <polygon
           style="fill:none;stroke:#000000"
           id="polygon111"
           points="72,-312 72,-330 136,-330 136,-312 72,-312 " />
        <text
           style="font-size:11px;text-anchor:start;font-family:'Helvetica,sans-Serif'"
           id="text113"
           font-size="11.00"
           y="-318.20001"
           x="75">bpchar[1]</text>
        <polygon
           style="fill:#f7f7f7;stroke:none"
           id="polygon115"
           points="10,-294 10,-312 33,-312 33,-294 10,-294 " />
        <polygon
           style="fill:none;stroke:#000000"
           id="polygon117"
           points="10,-294 10,-312 33,-312 33,-294 10,-294 " />
        <text
           style="font-size:11px;text-anchor:start;font-family:'Helvetica,sans-Serif'"
           id="text119"
           font-size="11.00"
           y="-300.20001"
           x="13">&lt; 0</text>
        <polygon
           style="fill:#f7f7f7;stroke:none"
           id="polygon121"
           points="33,-294 33,-312 72,-312 72,-294 33,-294 " />
        <polygon
           style="fill:none;stroke:#000000"
           id="polygon123"
           points="33,-294 33,-312 72,-312 72,-294 33,-294 " />
        <text
           style="font-size:11px;text-anchor:start;font-family:'Helvetica,sans-Serif'"
           id="text125"
           font-size="11.00"
           y="-300.20001"
           x="36">5 rows</text>
        <polygon
           style="fill:#f7f7f7;stroke:none"
           id="polygon127"
           points="72,-294 72,-312 136,-312 136,-294 72,-294 " />
        <polygon
           style="fill:none;stroke:#000000"
           id="polygon129"
           points="72,-294 72,-312 136,-312 136,-294 72,-294 " />
        <text
           style="font-size:11px;text-anchor:start;font-family:'Helvetica,sans-Serif'"
           id="text131"
           font-size="11.00"
           y="-300.20001"
           x="117">4 &gt;</text>
        <polygon
           style="fill:none;stroke:#000000;stroke-width:2"
           id="polygon133"
           points="9,-293.5 9,-404.5 137,-404.5 137,-293.5 9,-293.5 " />
      </a>
    </g>
  </g>
  <g
     class="edge"
     id="edge1"
     transform="translate(-8,625.5)">
    <title
       id="title136">cart:product_id:w-&gt;products:product_id.type:e</title>
    <path
       style="fill:none;stroke:#000000"
       inkscape:connector-curvature="0"
       id="path138"
       d="M 173.576,-595.081 C 102.575,-573.383 232.7,-375 137,-375" />
    <polygon
       style="fill:#000000;stroke:#000000"
       id="polygon140"
       points="188,-597 184.035,-596.472 188.475,-593.431 180.07,-595.945 180.07,-595.945 180.07,-595.945 187.525,-600.569 184.035,-596.472 188,-597 188,-597 " />
    <ellipse
       style="fill:none;stroke:#000000"
       sodipodi:ry="3.2"
       sodipodi:rx="3.2"
       sodipodi:cy="-595.52301"
       sodipodi:cx="176.89799"
       d="M 180.098,-595.52301 C 180.098,-593.7557 178.66531,-592.32301 176.89799,-592.32301 C 175.13068,-592.32301 173.69799,-593.7557 173.69799,-595.52301 C 173.69799,-597.29032 175.13068,-598.72301 176.89799,-598.72301 C 178.66531,-598.72301 180.098,-597.29032 180.098,-595.52301 z"
       id="ellipse142"
       ry="3.2"
       rx="3.2"
       cy="-595.52301"
       cx="176.89799" />
  </g>
  <g
     class="node"
     id="node3"
     transform="translate(-8,625.5)">
    <title
       id="title145">inventory</title>
    <g
       id="a_node3">
      <a
         xlink:href="inventory.html"
         xlink:title="inventory"
         id="a148">
        <polygon
           style="fill:#ffffff;stroke:none"
           id="polygon150"
           points="189,-350.5 189,-477.5 269,-477.5 269,-350.5 189,-350.5 " />
        <polygon
           style="fill:#9bab96;stroke:none"
           id="polygon152"
           points="189,-458 189,-477 269,-477 269,-458 189,-458 " />
        <polygon
           style="fill:none;stroke:#000000"
           id="polygon154"
           points="189,-458 189,-477 269,-477 269,-458 189,-458 " />
        <text
           style="font-size:11px;text-anchor:start;font-family:'Helvetica,sans-Serif'"
           id="text156"
           font-size="11.00"
           y="-464.70001"
           x="207">inventory</text>
        <polygon
           style="fill:#bed1b8;stroke:none"
           id="polygon158"
           points="189,-440 189,-458 269,-458 269,-440 189,-440 " />
        <polygon
           style="fill:none;stroke:#000000"
           id="polygon160"
           points="189,-440 189,-458 269,-458 269,-440 189,-440 " />
        <text
           style="font-size:11px;text-anchor:start;font-family:'Helvetica,sans-Serif'"
           id="text162"
           font-size="11.00"
           y="-446.20001"
           x="192">product_id</text>
        <polygon
           style="fill:none;stroke:#000000"
           id="polygon164"
           points="189,-422 189,-440 269,-440 269,-422 189,-422 " />
        <text
           style="font-size:11px;text-anchor:start;font-family:'Helvetica,sans-Serif'"
           id="text166"
           font-size="11.00"
           y="-428.20001"
           x="192">quantity</text>
        <polygon
           style="fill:none;stroke:#000000"
           id="polygon168"
           points="189,-404 189,-422 269,-422 269,-404 189,-404 " />
        <text
           style="font-size:11px;text-anchor:start;font-family:'Helvetica,sans-Serif'"
           id="text170"
           font-size="11.00"
           y="-410.20001"
           x="192">date_creation</text>
        <polygon
           style="fill:none;stroke:#000000"
           id="polygon172"
           points="189,-386 189,-404 269,-404 269,-386 189,-386 " />
        <text
           style="font-size:11px;text-anchor:start;font-family:'Helvetica,sans-Serif'"
           id="text174"
           font-size="11.00"
           y="-392.20001"
           x="192">date_update</text>
        <polygon
           style="fill:none;stroke:#000000"
           id="polygon176"
           points="189,-368 189,-386 269,-386 269,-368 189,-368 " />
        <text
           style="font-size:11px;text-anchor:start;font-family:'Helvetica,sans-Serif'"
           id="text178"
           font-size="11.00"
           y="-374.20001"
           x="192">owner_session</text>
        <polygon
           style="fill:#f7f7f7;stroke:none"
           id="polygon180"
           points="189,-350 189,-368 214,-368 214,-350 189,-350 " />
        <polygon
           style="fill:none;stroke:#000000"
           id="polygon182"
           points="189,-350 189,-368 214,-368 214,-350 189,-350 " />
        <text
           style="font-size:11px;text-anchor:start;font-family:'Helvetica,sans-Serif'"
           id="text184"
           font-size="11.00"
           y="-356.20001"
           x="192">&lt; 1</text>
        <polygon
           style="fill:#f7f7f7;stroke:none"
           id="polygon186"
           points="214,-350 214,-368 254,-368 254,-350 214,-350 " />
        <polygon
           style="fill:none;stroke:#000000"
           id="polygon188"
           points="214,-350 214,-368 254,-368 254,-350 214,-350 " />
        <text
           style="font-size:11px;text-anchor:start;font-family:'Helvetica,sans-Serif'"
           id="text190"
           font-size="11.00"
           y="-356.20001"
           x="218">5 rows</text>
        <polygon
           style="fill:#f7f7f7;stroke:none"
           id="polygon192"
           points="254,-350 254,-368 269,-368 269,-350 254,-350 " />
        <polygon
           style="fill:none;stroke:#000000"
           id="polygon194"
           points="254,-350 254,-368 269,-368 269,-350 254,-350 " />
        <text
           style="font-size:11px;text-anchor:start;font-family:'Helvetica,sans-Serif'"
           id="text196"
           font-size="11.00"
           y="-356.20001"
           x="259"> </text>
      </a>
    </g>
  </g>
  <g
     class="edge"
     id="edge2"
     transform="translate(-8,625.5)">
    <title
       id="title199">inventory:product_id:w-&gt;products:product_id.type:e</title>
    <path
       style="fill:none;stroke:#000000"
       inkscape:connector-curvature="0"
       id="path201"
       d="M 177.816,-446.865 C 153.214,-434.732 172.886,-375 137,-375" />
    <polygon
       style="fill:#000000;stroke:#000000"
       id="polygon203"
       points="188.038,-444.921 186.396,-452.751 184.83,-452.423 186.472,-444.593 188.038,-444.921 " />
    <polyline
       style="fill:none;stroke:#000000"
       id="polyline205"
       points="188,-449 184.085,-448.179 " />
    <ellipse
       style="fill:none;stroke:#000000"
       sodipodi:ry="3.2000101"
       sodipodi:rx="3.2000101"
       sodipodi:cy="-447.52301"
       sodipodi:cx="180.953"
       d="M 184.15301,-447.52301 C 184.15301,-445.75569 182.72032,-444.323 180.953,-444.323 C 179.18569,-444.323 177.75299,-445.75569 177.75299,-447.52301 C 177.75299,-449.29033 179.18569,-450.72302 180.953,-450.72302 C 182.72032,-450.72302 184.15301,-449.29033 184.15301,-447.52301 z"
       id="ellipse207"
       ry="3.2000101"
       rx="3.2000101"
       cy="-447.52301"
       cx="180.953" />
  </g>
  <g
     class="node"
     id="node4"
     transform="translate(-8,625.5)">
    <title
       id="title210">inventory_view</title>
    <g
       id="a_node4">
      <a
         xlink:href="inventory_view.html"
         xlink:title="inventory_view"
         id="a213">
        <polygon
           style="fill:#ffffff;stroke:none"
           id="polygon215"
           points="320.5,-312.5 320.5,-367.5 399.5,-367.5 399.5,-312.5 320.5,-312.5 " />
        <polygon
           style="fill:#9bab96;stroke:none"
           id="polygon217"
           points="321,-348 321,-367 400,-367 400,-348 321,-348 " />
        <polygon
           style="fill:none;stroke:#000000"
           id="polygon219"
           points="321,-348 321,-367 400,-367 400,-348 321,-348 " />
        <text
           style="font-size:11px;text-anchor:start;font-family:'Helvetica,sans-Serif'"
           id="text221"
           font-size="11.00"
           y="-354.70001"
           x="324.5">inventory_view</text>
        <polygon
           style="fill:none;stroke:#000000"
           id="polygon223"
           points="321,-330 321,-348 400,-348 400,-330 321,-330 " />
        <text
           style="font-size:11px;text-anchor:start;font-family:'Helvetica,sans-Serif'"
           id="text225"
           font-size="11.00"
           y="-336.20001"
           x="324">...</text>
        <polygon
           style="fill:#f7f7f7;stroke:none"
           id="polygon227"
           points="321,-312 321,-330 351,-330 351,-312 321,-312 " />
        <polygon
           style="fill:none;stroke:#000000"
           id="polygon229"
           points="321,-312 321,-330 351,-330 351,-312 321,-312 " />
        <text
           style="font-size:11px;text-anchor:start;font-family:'Helvetica,sans-Serif'"
           id="text231"
           font-size="11.00"
           y="-318.20001"
           x="324">&lt; 1</text>
        <polygon
           style="fill:#f7f7f7;stroke:none"
           id="polygon233"
           points="351,-312 351,-330 383,-330 383,-312 351,-312 " />
        <polygon
           style="fill:none;stroke:#000000"
           id="polygon235"
           points="351,-312 351,-330 383,-330 383,-312 351,-312 " />
        <text
           style="font-size:11px;text-anchor:start;font-family:'Helvetica,sans-Serif'"
           id="text237"
           font-size="11.00"
           y="-318.20001"
           x="358">view</text>
        <polygon
           style="fill:#f7f7f7;stroke:none"
           id="polygon239"
           points="383,-312 383,-330 400,-330 400,-312 383,-312 " />
        <polygon
           style="fill:none;stroke:#000000"
           id="polygon241"
           points="383,-312 383,-330 400,-330 400,-312 383,-312 " />
        <text
           style="font-size:11px;text-anchor:start;font-family:'Helvetica,sans-Serif'"
           id="text243"
           font-size="11.00"
           y="-318.20001"
           x="390"> </text>
      </a>
    </g>
  </g>
  <g
     class="node"
     id="node5"
     transform="translate(-8,625.5)">
    <title
       id="title246">test_inventory</title>
    <g
       id="a_node5">
      <a
         xlink:href="test_inventory.html"
         xlink:title="test_inventory"
         id="a249">
        <polygon
           style="fill:#ffffff;stroke:none"
           id="polygon251"
           points="187,-202.5 187,-329.5 271,-329.5 271,-202.5 187,-202.5 " />
        <polygon
           style="fill:#9bab96;stroke:none"
           id="polygon253"
           points="187,-310 187,-329 271,-329 271,-310 187,-310 " />
        <polygon
           style="fill:none;stroke:#000000"
           id="polygon255"
           points="187,-310 187,-329 271,-329 271,-310 187,-310 " />
        <text
           style="font-size:11px;text-anchor:start;font-family:'Helvetica,sans-Serif'"
           id="text257"
           font-size="11.00"
           y="-316.70001"
           x="195.5">test_inventory</text>
        <polygon
           style="fill:#bed1b8;stroke:none"
           id="polygon259"
           points="187,-292 187,-310 271,-310 271,-292 187,-292 " />
        <polygon
           style="fill:none;stroke:#000000"
           id="polygon261"
           points="187,-292 187,-310 271,-310 271,-292 187,-292 " />
        <text
           style="font-size:11px;text-anchor:start;font-family:'Helvetica,sans-Serif'"
           id="text263"
           font-size="11.00"
           y="-298.20001"
           x="190">product_id</text>
        <polygon
           style="fill:none;stroke:#000000"
           id="polygon265"
           points="187,-274 187,-292 271,-292 271,-274 187,-274 " />
        <text
           style="font-size:11px;text-anchor:start;font-family:'Helvetica,sans-Serif'"
           id="text267"
           font-size="11.00"
           y="-280.20001"
           x="190">quantity</text>
        <polygon
           style="fill:none;stroke:#000000"
           id="polygon269"
           points="187,-256 187,-274 271,-274 271,-256 187,-256 " />
        <text
           style="font-size:11px;text-anchor:start;font-family:'Helvetica,sans-Serif'"
           id="text271"
           font-size="11.00"
           y="-262.20001"
           x="190">date_creation</text>
        <polygon
           style="fill:none;stroke:#000000"
           id="polygon273"
           points="187,-238 187,-256 271,-256 271,-238 187,-238 " />
        <text
           style="font-size:11px;text-anchor:start;font-family:'Helvetica,sans-Serif'"
           id="text275"
           font-size="11.00"
           y="-244.2"
           x="190">date_update</text>
        <polygon
           style="fill:none;stroke:#000000"
           id="polygon277"
           points="187,-220 187,-238 271,-238 271,-220 187,-220 " />
        <text
           style="font-size:11px;text-anchor:start;font-family:'Helvetica,sans-Serif'"
           id="text279"
           font-size="11.00"
           y="-226.2"
           x="190">owner_session</text>
        <polygon
           style="fill:#f7f7f7;stroke:none"
           id="polygon281"
           points="187,-202 187,-220 210,-220 210,-202 187,-202 " />
        <polygon
           style="fill:none;stroke:#000000"
           id="polygon283"
           points="187,-202 187,-220 210,-220 210,-202 187,-202 " />
        <text
           style="font-size:11px;text-anchor:start;font-family:'Helvetica,sans-Serif'"
           id="text285"
           font-size="11.00"
           y="-208.2"
           x="190">&lt; 1</text>
        <polygon
           style="fill:#f7f7f7;stroke:none"
           id="polygon287"
           points="210,-202 210,-220 249,-220 249,-202 210,-202 " />
        <polygon
           style="fill:none;stroke:#000000"
           id="polygon289"
           points="210,-202 210,-220 249,-220 249,-202 210,-202 " />
        <text
           style="font-size:11px;text-anchor:start;font-family:'Helvetica,sans-Serif'"
           id="text291"
           font-size="11.00"
           y="-208.2"
           x="213">3 rows</text>
        <polygon
           style="fill:#f7f7f7;stroke:none"
           id="polygon293"
           points="249,-202 249,-220 271,-220 271,-202 249,-202 " />
        <polygon
           style="fill:none;stroke:#000000"
           id="polygon295"
           points="249,-202 249,-220 271,-220 271,-202 249,-202 " />
        <text
           style="font-size:11px;text-anchor:start;font-family:'Helvetica,sans-Serif'"
           id="text297"
           font-size="11.00"
           y="-208.2"
           x="252">2 &gt;</text>
      </a>
    </g>
  </g>
  <g
     class="edge"
     id="edge3"
     transform="translate(-8,625.5)">
    <title
       id="title300">inventory_view:elipses:w-&gt;test_inventory:product_id:e</title>
    <path
       style="fill:none;stroke:#000000;stroke-dasharray:5, 2"
       inkscape:connector-curvature="0"
       id="path302"
       d="M 306.267,-334.34 C 293.99,-324.193 293.257,-301 272,-301" />
    <polygon
       style="fill:#000000;stroke:#000000"
       id="polygon304"
       points="320,-339 316.212,-337.715 321.157,-335.591 312.424,-336.429 312.424,-336.429 312.424,-336.429 318.843,-342.409 316.212,-337.715 320,-339 320,-339 " />
    <ellipse
       style="fill:none;stroke:#000000"
       sodipodi:ry="3.2000101"
       sodipodi:rx="3.2000101"
       sodipodi:cy="-335.401"
       sodipodi:cx="309.39401"
       d="M 312.59402,-335.401 C 312.59402,-333.63368 311.16133,-332.20099 309.39401,-332.20099 C 307.6267,-332.20099 306.194,-333.63368 306.194,-335.401 C 306.194,-337.16832 307.6267,-338.60101 309.39401,-338.60101 C 311.16133,-338.60101 312.59402,-337.16832 312.59402,-335.401 z"
       id="ellipse306"
       ry="3.2000101"
       rx="3.2000101"
       cy="-335.401"
       cx="309.39401" />
  </g>
  <g
     class="edge"
     id="edge7"
     transform="translate(-8,625.5)">
    <title
       id="title309">test_inventory:product_id:w-&gt;products:product_id.type:e</title>
    <path
       style="fill:none;stroke:#000000"
       inkscape:connector-curvature="0"
       id="path311"
       d="M 175.67,-303.296 C 152.088,-315.786 172.285,-375 137,-375" />
    <polygon
       style="fill:#000000;stroke:#000000"
       id="polygon313"
       points="184.351,-297.269 186.087,-305.078 184.525,-305.425 182.789,-297.616 184.351,-297.269 " />
    <polyline
       style="fill:none;stroke:#000000"
       id="polyline315"
       points="186,-301 182.095,-301.868 " />
    <ellipse
       style="fill:none;stroke:#000000"
       sodipodi:ry="3.2000101"
       sodipodi:rx="3.2000101"
       sodipodi:cy="-302.56201"
       sodipodi:cx="178.97099"
       d="M 182.171,-302.56201 C 182.171,-300.79469 180.73831,-299.362 178.97099,-299.362 C 177.20368,-299.362 175.77098,-300.79469 175.77098,-302.56201 C 175.77098,-304.32933 177.20368,-305.76202 178.97099,-305.76202 C 180.73831,-305.76202 182.171,-304.32933 182.171,-302.56201 z"
       id="ellipse317"
       ry="3.2000101"
       rx="3.2000101"
       cy="-302.56201"
       cx="178.97099" />
  </g>
  <g
     class="node"
     id="node6"
     transform="translate(-8,625.5)">
    <title
       id="title320">invoice_line</title>
    <g
       id="a_node6">
      <a
         xlink:href="invoice_line.html"
         xlink:title="invoice_line"
         id="a323">
        <polygon
           style="fill:#ffffff;stroke:none"
           id="polygon325"
           points="190.5,-36.5 190.5,-181.5 267.5,-181.5 267.5,-36.5 190.5,-36.5 " />
        <polygon
           style="fill:#9bab96;stroke:none"
           id="polygon327"
           points="191,-162 191,-181 268,-181 268,-162 191,-162 " />
        <polygon
           style="fill:none;stroke:#000000"
           id="polygon329"
           points="191,-162 191,-181 268,-181 268,-162 191,-162 " />
        <text
           style="font-size:11px;text-anchor:start;font-family:'Helvetica,sans-Serif'"
           id="text331"
           font-size="11.00"
           y="-168.7"
           x="201.5">invoice_line</text>
        <polygon
           style="fill:#bed1b8;stroke:none"
           id="polygon333"
           points="191,-144 191,-162 268,-162 268,-144 191,-144 " />
        <polygon
           style="fill:none;stroke:#000000"
           id="polygon335"
           points="191,-144 191,-162 268,-162 268,-144 191,-144 " />
        <text
           style="font-size:11px;text-anchor:start;font-family:'Helvetica,sans-Serif'"
           id="text337"
           font-size="11.00"
           y="-150.2"
           x="194">invoice_line_id</text>
        <polygon
           style="fill:none;stroke:#000000"
           id="polygon339"
           points="191,-126 191,-144 268,-144 268,-126 191,-126 " />
        <text
           style="font-size:11px;text-anchor:start;font-family:'Helvetica,sans-Serif'"
           id="text341"
           font-size="11.00"
           y="-132.2"
           x="194">invoice_id</text>
        <polygon
           style="fill:none;stroke:#000000"
           id="polygon343"
           points="191,-108 191,-126 268,-126 268,-108 191,-108 " />
        <text
           style="font-size:11px;text-anchor:start;font-family:'Helvetica,sans-Serif'"
           id="text345"
           font-size="11.00"
           y="-114.2"
           x="194">quantity</text>
        <polygon
           style="fill:none;stroke:#000000"
           id="polygon347"
           points="191,-90 191,-108 268,-108 268,-90 191,-90 " />
        <text
           style="font-size:11px;text-anchor:start;font-family:'Helvetica,sans-Serif'"
           id="text349"
           font-size="11.00"
           y="-96.199997"
           x="194">product_id</text>
        <polygon
           style="fill:none;stroke:#000000"
           id="polygon351"
           points="191,-72 191,-90 268,-90 268,-72 191,-72 " />
        <text
           style="font-size:11px;text-anchor:start;font-family:'Helvetica,sans-Serif'"
           id="text353"
           font-size="11.00"
           y="-78.199997"
           x="194">sales_price</text>
        <polygon
           style="fill:none;stroke:#000000"
           id="polygon355"
           points="191,-54 191,-72 268,-72 268,-54 191,-54 " />
        <text
           style="font-size:11px;text-anchor:start;font-family:'Helvetica,sans-Serif'"
           id="text357"
           font-size="11.00"
           y="-60.200001"
           x="194">vat_amount</text>
        <polygon
           style="fill:#f7f7f7;stroke:none"
           id="polygon359"
           points="191,-36 191,-54 215,-54 215,-36 191,-36 " />
        <polygon
           style="fill:none;stroke:#000000"
           id="polygon361"
           points="191,-36 191,-54 215,-54 215,-36 191,-36 " />
        <text
           style="font-size:11px;text-anchor:start;font-family:'Helvetica,sans-Serif'"
           id="text363"
           font-size="11.00"
           y="-42.200001"
           x="194">&lt; 2</text>
        <polygon
           style="fill:#f7f7f7;stroke:none"
           id="polygon365"
           points="215,-36 215,-54 254,-54 254,-36 215,-36 " />
        <polygon
           style="fill:none;stroke:#000000"
           id="polygon367"
           points="215,-36 215,-54 254,-54 254,-36 215,-36 " />
        <text
           style="font-size:11px;text-anchor:start;font-family:'Helvetica,sans-Serif'"
           id="text369"
           font-size="11.00"
           y="-42.200001"
           x="218">0 rows</text>
        <polygon
           style="fill:#f7f7f7;stroke:none"
           id="polygon371"
           points="254,-36 254,-54 268,-54 268,-36 254,-36 " />
        <polygon
           style="fill:none;stroke:#000000"
           id="polygon373"
           points="254,-36 254,-54 268,-54 268,-36 254,-36 " />
        <text
           style="font-size:11px;text-anchor:start;font-family:'Helvetica,sans-Serif'"
           id="text375"
           font-size="11.00"
           y="-42.200001"
           x="258"> </text>
      </a>
    </g>
  </g>
  <g
     class="edge"
     id="edge5"
     transform="translate(-8,625.5)">
    <title
       id="title378">invoice_line:product_id:w-&gt;products:product_id.type:e</title>
    <path
       style="fill:none;stroke:#000000"
       inkscape:connector-curvature="0"
       id="path380"
       d="M 176.705,-104.765 C 138.913,-144.399 194.087,-375 137,-375" />
    <polygon
       style="fill:#000000;stroke:#000000"
       id="polygon382"
       points="190,-99 186.33,-100.591 188.568,-95.6971 182.66,-102.182 182.66,-102.182 182.66,-102.182 191.432,-102.303 186.33,-100.591 190,-99 190,-99 " />
    <ellipse
       style="fill:none;stroke:#000000"
       sodipodi:ry="3.2000101"
       sodipodi:rx="3.2000101"
       sodipodi:cy="-103.455"
       sodipodi:cx="179.724"
       d="M 182.92401,-103.455 C 182.92401,-101.68769 181.49132,-100.25499 179.724,-100.25499 C 177.95668,-100.25499 176.52399,-101.68769 176.52399,-103.455 C 176.52399,-105.22232 177.95668,-106.65501 179.724,-106.65501 C 181.49132,-106.65501 182.92401,-105.22232 182.92401,-103.455 z"
       id="ellipse384"
       ry="3.2000101"
       rx="3.2000101"
       cy="-103.455"
       cx="179.724" />
  </g>
  <g
     class="node"
     id="node7"
     transform="translate(-8,625.5)">
    <title
       id="title387">invoice</title>
    <g
       id="a_node7">
      <a
         xlink:href="invoice.html"
         xlink:title="invoice"
         id="a390">
        <polygon
           style="fill:#ffffff;stroke:none"
           id="polygon392"
           points="35.5,-108.5 35.5,-163.5 110.5,-163.5 110.5,-108.5 35.5,-108.5 " />
        <polygon
           style="fill:#9bab96;stroke:none"
           id="polygon394"
           points="36,-144 36,-163 111,-163 111,-144 36,-144 " />
        <polygon
           style="fill:none;stroke:#000000"
           id="polygon396"
           points="36,-144 36,-163 111,-163 111,-144 36,-144 " />
        <text
           style="font-size:11px;text-anchor:start;font-family:'Helvetica,sans-Serif'"
           id="text398"
           font-size="11.00"
           y="-150.7"
           x="56.5">invoice</text>
        <polygon
           style="fill:none;stroke:#000000"
           id="polygon400"
           points="36,-126 36,-144 111,-144 111,-126 36,-126 " />
        <text
           style="font-size:11px;text-anchor:start;font-family:'Helvetica,sans-Serif'"
           id="text402"
           font-size="11.00"
           y="-132.2"
           x="39">...</text>
        <polygon
           style="fill:#f7f7f7;stroke:none"
           id="polygon404"
           points="36,-108 36,-126 50,-126 50,-108 36,-108 " />
        <polygon
           style="fill:none;stroke:#000000"
           id="polygon406"
           points="36,-108 36,-126 50,-126 50,-108 36,-108 " />
        <text
           style="font-size:11px;text-anchor:start;font-family:'Helvetica,sans-Serif'"
           id="text408"
           font-size="11.00"
           y="-114.2"
           x="39"> </text>
        <polygon
           style="fill:#f7f7f7;stroke:none"
           id="polygon410"
           points="50,-108 50,-126 89,-126 89,-108 50,-108 " />
        <polygon
           style="fill:none;stroke:#000000"
           id="polygon412"
           points="50,-108 50,-126 89,-126 89,-108 50,-108 " />
        <text
           style="font-size:11px;text-anchor:start;font-family:'Helvetica,sans-Serif'"
           id="text414"
           font-size="11.00"
           y="-114.2"
           x="53">0 rows</text>
        <polygon
           style="fill:#f7f7f7;stroke:none"
           id="polygon416"
           points="89,-108 89,-126 111,-126 111,-108 89,-108 " />
        <polygon
           style="fill:none;stroke:#000000"
           id="polygon418"
           points="89,-108 89,-126 111,-126 111,-108 89,-108 " />
        <text
           style="font-size:11px;text-anchor:start;font-family:'Helvetica,sans-Serif'"
           id="text420"
           font-size="11.00"
           y="-114.2"
           x="92">1 &gt;</text>
      </a>
    </g>
  </g>
  <g
     class="edge"
     id="edge4"
     transform="translate(-8,625.5)">
    <title
       id="title423">invoice_line:invoice_id:w-&gt;invoice:elipses:e</title>
    <path
       style="fill:none;stroke:#000000"
       inkscape:connector-curvature="0"
       id="path425"
       d="M 175.456,-135 C 151.99,-135 141.25,-135 112,-135" />
    <polygon
       style="fill:#000000;stroke:#000000"
       id="polygon427"
       points="190,-135 186,-135 190,-131.4 182,-135 182,-135 182,-135 190,-138.6 186,-135 190,-135 190,-135 " />
    <ellipse
       style="fill:none;stroke:#000000"
       sodipodi:ry="3.2"
       sodipodi:rx="3.2"
       sodipodi:cy="-135"
       sodipodi:cx="178.8"
       d="M 182,-135 C 182,-133.23269 180.56731,-131.8 178.8,-131.8 C 177.03269,-131.8 175.6,-133.23269 175.6,-135 C 175.6,-136.76731 177.03269,-138.2 178.8,-138.2 C 180.56731,-138.2 182,-136.76731 182,-135 z"
       id="ellipse429"
       ry="3.2"
       rx="3.2"
       cy="-135"
       cx="178.8" />
  </g>
  <g
     class="node"
     id="node8"
     transform="translate(-8,625.5)">
    <title
       id="title432">sales</title>
    <g
       id="a_node8">
      <a
         xlink:href="sales.html"
         xlink:title="sales"
         id="a435">
        <polygon
           style="fill:#ffffff;stroke:none"
           id="polygon437"
           points="322.5,-236.5 322.5,-291.5 397.5,-291.5 397.5,-236.5 322.5,-236.5 " />
        <polygon
           style="fill:#9bab96;stroke:none"
           id="polygon439"
           points="323,-272 323,-291 398,-291 398,-272 323,-272 " />
        <polygon
           style="fill:none;stroke:#000000"
           id="polygon441"
           points="323,-272 323,-291 398,-291 398,-272 323,-272 " />
        <text
           style="font-size:11px;text-anchor:start;font-family:'Helvetica,sans-Serif'"
           id="text443"
           font-size="11.00"
           y="-278.70001"
           x="348">sales</text>
        <polygon
           style="fill:none;stroke:#000000"
           id="polygon445"
           points="323,-254 323,-272 398,-272 398,-254 323,-254 " />
        <text
           style="font-size:11px;text-anchor:start;font-family:'Helvetica,sans-Serif'"
           id="text447"
           font-size="11.00"
           y="-260.20001"
           x="326">...</text>
        <polygon
           style="fill:#f7f7f7;stroke:none"
           id="polygon449"
           points="323,-236 323,-254 346,-254 346,-236 323,-236 " />
        <polygon
           style="fill:none;stroke:#000000"
           id="polygon451"
           points="323,-236 323,-254 346,-254 346,-236 323,-236 " />
        <text
           style="font-size:11px;text-anchor:start;font-family:'Helvetica,sans-Serif'"
           id="text453"
           font-size="11.00"
           y="-242.2"
           x="326">&lt; 1</text>
        <polygon
           style="fill:#f7f7f7;stroke:none"
           id="polygon455"
           points="346,-236 346,-254 385,-254 385,-236 346,-236 " />
        <polygon
           style="fill:none;stroke:#000000"
           id="polygon457"
           points="346,-236 346,-254 385,-254 385,-236 346,-236 " />
        <text
           style="font-size:11px;text-anchor:start;font-family:'Helvetica,sans-Serif'"
           id="text459"
           font-size="11.00"
           y="-242.2"
           x="349">0 rows</text>
        <polygon
           style="fill:#f7f7f7;stroke:none"
           id="polygon461"
           points="385,-236 385,-254 398,-254 398,-236 385,-236 " />
        <polygon
           style="fill:none;stroke:#000000"
           id="polygon463"
           points="385,-236 385,-254 398,-254 398,-236 385,-236 " />
        <text
           style="font-size:11px;text-anchor:start;font-family:'Helvetica,sans-Serif'"
           id="text465"
           font-size="11.00"
           y="-242.2"
           x="388"> </text>
      </a>
    </g>
  </g>
  <g
     class="edge"
     id="edge6"
     transform="translate(-8,625.5)">
    <title
       id="title468">sales:elipses:w-&gt;test_inventory:product_id:e</title>
    <path
       style="fill:none;stroke:#000000;stroke-dasharray:5, 2"
       inkscape:connector-curvature="0"
       id="path470"
       d="M 308.207,-267.359 C 295.044,-277.34 294.024,-301 272,-301" />
    <polygon
       style="fill:#000000;stroke:#000000"
       id="polygon472"
       points="322,-263 318.186,-264.205 320.915,-259.567 314.372,-265.411 314.372,-265.411 314.372,-265.411 323.085,-266.433 318.186,-264.205 322,-263 322,-263 " />
    <ellipse
       style="fill:none;stroke:#000000"
       sodipodi:ry="3.2000101"
       sodipodi:rx="3.2000101"
       sodipodi:cy="-266.375"
       sodipodi:cx="311.32101"
       d="M 314.52102,-266.375 C 314.52102,-264.60768 313.08833,-263.17499 311.32101,-263.17499 C 309.5537,-263.17499 308.121,-264.60768 308.121,-266.375 C 308.121,-268.14232 309.5537,-269.57501 311.32101,-269.57501 C 313.08833,-269.57501 314.52102,-268.14232 314.52102,-266.375 z"
       id="ellipse474"
       ry="3.2000101"
       rx="3.2000101"
       cy="-266.375"
       cx="311.32101" />
  </g>
</svg>
